PathFileType	4	(X/Y/Z)	\\147.46.242.158\로컬 디스크 (e)\MOCAP Data\Iguana Capture\iguana\Project 2\Capture day 7\Session 2\Take13.trc
DataRate	CameraRate	NumFrames	NumMarkers	Units	OrigDataRate	OrigDataStartFrame	OrigNumFrames
120.0	120.0	5	23	mm	120.0	21	7542
Frame#	Time	ana:head1			ana:head2			ana:bone1			ana:bone2			ana:bone3			ana:tail1			ana:tail2			ana:tail3			ana:tail4			ana:Rforefoot1			ana:Rforefoot2			ana:Rforefoot3			ana:Lforefoot1			ana:Lforefoot2			ana:Lforefoot3			ana:RhindLeg1			ana:RhindLeg2			ana:RhindLeg3			ana:RhindLeg4			ana:LhindLeg1			ana:LhindLeg2			ana:LhindLeg3			ana:LhindLeg4			
		X1	Y1	Z1	X2	Y2	Z2	X3	Y3	Z3	X4	Y4	Z4	X5	Y5	Z5	X6	Y6	Z6	X7	Y7	Z7	X8	Y8	Z8	X9	Y9	Z9	X10	Y10	Z10	X11	Y11	Z11	X12	Y12	Z12	X13	Y13	Z13	X14	Y14	Z14	X15	Y15	Z15	X16	Y16	Z16	X17	Y17	Z17	X18	Y18	Z18	X19	Y19	Z19	X20	Y20	Z20	X21	Y21	Z21	X22	Y22	Z22	X23	Y23	Z23	

5400	44.992	441.87390	173.01134	56.93674	431.52933	176.69946	56.98101	415.15225	187.73479	45.25395	404.74020	212.43398	35.41991	397.59680	242.54121	21.54646	391.95767	270.01501	12.08501	377.01239	303.91995	7.28965	355.47696	340.08649	6.15500	333.79593	376.21417	4.26801	407.18646	172.78072	28.99379	394.12512	175.72272	19.82648	393.18671	168.43614	4.42104	428.47498	186.85364	27.33679	433.30908	192.28084	15.69585	428.37231	183.93797	1.02152	388.94363	238.44630	15.49201	374.11450	225.98413	16.34183	374.21964	239.70807	2.74080	373.41312	229.00845	3.43285	406.89545	242.46977	15.38530	424.11890	237.53839	18.85061	420.71170	248.92029	1.11104	430.12964	243.18896	2.98251	
5401	45.000	442.92828	173.42296	56.63136	432.54169	176.96765	56.78426	415.89020	187.87744	45.30534	404.99805	212.47459	35.60454	397.69843	242.38274	21.64570	391.99582	270.00949	12.19634	377.04498	303.83347	7.26910	355.53973	340.00229	6.10939	333.82877	376.14139	4.24663	408.00119	172.77182	29.22733	394.70840	175.62270	20.31941	393.44641	168.28145	4.81168	428.94672	187.40343	27.21503	433.66641	192.64656	15.41354	428.45193	183.78488	1.09083	389.02667	238.42946	15.55859	374.11951	226.00394	16.33729	374.21991	239.70467	2.73829	373.41693	229.00127	3.42284	406.85928	242.49289	15.51758	424.25766	237.62851	18.88580	420.67902	248.88756	1.05693	430.18100	243.22484	2.92014	
5402	45.008	443.94312	173.79910	56.35989	433.63416	177.25682	56.58303	416.61157	187.99982	45.32630	405.25095	212.40373	35.77959	397.74600	242.07271	21.80549	392.03314	270.00504	12.33106	377.08350	303.72498	7.25062	355.61115	339.89462	6.05458	333.86118	376.05093	4.22521	408.85031	172.91156	29.41306	395.27493	175.43733	20.86414	393.71863	168.12509	5.20510	429.33145	187.89349	27.01589	433.99838	193.00793	15.13545	428.51663	183.67688	1.14604	389.10596	238.42027	15.66192	374.10602	226.02383	16.33051	374.21402	239.70404	2.73597	373.41745	228.99150	3.40167	406.84384	242.51160	15.68262	424.43710	237.72368	18.93173	420.69736	248.86288	1.03309	430.24741	243.26344	2.84128	
5403	45.017	444.96118	174.15718	56.14185	434.70798	177.48436	56.40267	417.34705	188.17506	45.36926	405.51215	212.26604	35.96326	397.87100	241.76953	21.91165	392.09244	269.95227	12.49167	377.12207	303.57916	7.22514	355.68161	339.81107	6.01689	333.88922	375.94681	4.20876	409.62164	173.17282	29.61324	395.82422	175.19922	21.50206	394.02481	168.01729	5.56409	429.71521	188.30772	26.79375	434.23019	193.36423	14.83870	428.56665	183.62955	1.18381	389.15308	238.38016	15.79000	374.07538	226.04463	16.31852	374.20847	239.70073	2.73131	373.40854	228.98581	3.37543	406.85855	242.53236	15.88162	424.56223	237.79150	18.94834	420.76196	248.84178	1.03919	430.32523	243.29391	2.75477	
5404	45.025	445.97028	174.44289	55.96432	435.80701	177.75739	56.26136	418.09631	188.37726	45.42377	405.79843	212.08818	36.14430	398.08057	241.54868	22.03569	392.16379	269.85327	12.64614	377.17441	303.41608	7.20147	355.76447	339.71231	5.99291	333.91428	375.82986	4.20132	410.46066	173.33578	29.84403	396.38190	174.94876	22.22826	394.35272	168.00075	5.92597	430.16534	188.63934	26.59475	434.36182	193.70427	14.51369	428.59344	183.65266	1.18707	389.17432	238.31207	15.94235	374.02292	226.06073	16.30958	374.22415	239.73558	2.67271	373.38815	228.98434	3.34056	406.90631	242.50031	16.03976	424.68835	237.84871	18.95577	420.86954	248.86624	1.09547	430.39615	243.31720	2.67480	
